{"asset":{"version":"2.0","generator":"Blockbench 4.12.4 glTF exporter"},"scenes":[{"nodes":[21],"name":"blockbench_export"}],"scene":0,"nodes":[{"translation":[0,0.015625,-0.046875],"name":"head","mesh":0},{"translation":[0,1.75,0],"name":"head","children":[0]},{"rotation":[0,0,0.7071067811865475,0.7071067811865476],"translation":[0.5,0,0],"name":"right_sleeve","mesh":1},{"name":"right_sleeve","children":[2]},{"rotation":[4.329780281177466e-17,-0.7071067811865475,0.7071067811865476,4.329780281177467e-17],"translation":[0,0.03125,0],"name":"staff","mesh":2},{"translation":[0.3898943749999999,-0.0170300000000001,0.008554375000000003],"name":"staff","children":[4]},{"rotation":[0,0,0.7071067811865475,0.7071067811865476],"translation":[0.3125,0,0],"name":"right_wrist","mesh":3},{"translation":[0.5625,0,0],"name":"right_wrist","children":[5,6]},{"translation":[0.5,1.475,0.25],"name":"right_arm","children":[3,7]},{"translation":[0,0.875,0.25],"name":"torso","mesh":4},{"translation":[-0.5,1.390625,0.25],"name":"cloak","mesh":5},{"name":"torso","children":[8,9,10]},{"translation":[0.1875,1.625,0.25],"name":"right_thigh","mesh":6},{"translation":[0.1875,1,0.25],"name":"right_calve","mesh":7},{"translation":[0.1875,0.6875,0.25],"name":"right_boot","mesh":8},{"translation":[0,-1.3125,0],"name":"right_leg","children":[12,13,14]},{"translation":[0.1875,1.625,0.25],"name":"left_thigh","mesh":9},{"translation":[0.1875,1,0.25],"name":"left_calve","mesh":10},{"translation":[0.1875,0.6875,0.25],"name":"left_boot","mesh":11},{"translation":[-0.375,-1.3125,0],"name":"left_leg","children":[16,17,18]},{"translation":[0,0.625,-0.125],"name":"root","children":[1,11,15,19]},{"children":[20]}],"bufferViews":[{"buffer":0,"byteOffset":0,"byteLength":5280,"target":34962,"byteStride":12},{"buffer":0,"byteOffset":5280,"byteLength":5280,"target":34962,"byteStride":12},{"buffer":0,"byteOffset":10560,"byteLength":3520,"target":34962,"byteStride":8},{"buffer":0,"byteOffset":14080,"byteLength":1320,"target":34963},{"buffer":0,"byteOffset":15400,"byteLength":3168,"target":34962,"byteStride":12},{"buffer":0,"byteOffset":18568,"byteLength":3168,"target":34962,"byteStride":12},{"buffer":0,"byteOffset":21736,"byteLength":2112,"target":34962,"byteStride":8},{"buffer":0,"byteOffset":23848,"byteLength":720,"target":34963},{"buffer":0,"byteOffset":24568,"byteLength":13536,"target":34962,"byteStride":12},{"buffer":0,"byteOffset":38104,"byteLength":13536,"target":34962,"byteStride":12},{"buffer":0,"byteOffset":51640,"byteLength":9024,"target":34962,"byteStride":8},{"buffer":0,"byteOffset":60664,"byteLength":3312,"target":34963},{"buffer":0,"byteOffset":63976,"byteLength":4320,"target":34962,"byteStride":12},{"buffer":0,"byteOffset":68296,"byteLength":4320,"target":34962,"byteStride":12},{"buffer":0,"byteOffset":72616,"byteLength":2880,"target":34962,"byteStride":8},{"buffer":0,"byteOffset":75496,"byteLength":1008,"target":34963},{"buffer":0,"byteOffset":76504,"byteLength":8832,"target":34962,"byteStride":12},{"buffer":0,"byteOffset":85336,"byteLength":8832,"target":34962,"byteStride":12},{"buffer":0,"byteOffset":94168,"byteLength":5888,"target":34962,"byteStride":8},{"buffer":0,"byteOffset":100056,"byteLength":2208,"target":34963},{"buffer":0,"byteOffset":102264,"byteLength":1440,"target":34962,"byteStride":12},{"buffer":0,"byteOffset":103704,"byteLength":1440,"target":34962,"byteStride":12},{"buffer":0,"byteOffset":105144,"byteLength":960,"target":34962,"byteStride":8},{"buffer":0,"byteOffset":106104,"byteLength":348,"target":34963},{"buffer":0,"byteOffset":106452,"byteLength":1440,"target":34962,"byteStride":12},{"buffer":0,"byteOffset":107892,"byteLength":1440,"target":34962,"byteStride":12},{"buffer":0,"byteOffset":109332,"byteLength":960,"target":34962,"byteStride":8},{"buffer":0,"byteOffset":110292,"byteLength":360,"target":34963},{"buffer":0,"byteOffset":110652,"byteLength":1440,"target":34962,"byteStride":12},{"buffer":0,"byteOffset":112092,"byteLength":1440,"target":34962,"byteStride":12},{"buffer":0,"byteOffset":113532,"byteLength":960,"target":34962,"byteStride":8},{"buffer":0,"byteOffset":114492,"byteLength":360,"target":34963},{"buffer":0,"byteOffset":114852,"byteLength":6384,"target":34962,"byteStride":12},{"buffer":0,"byteOffset":121236,"byteLength":6384,"target":34962,"byteStride":12},{"buffer":0,"byteOffset":127620,"byteLength":4256,"target":34962,"byteStride":8},{"buffer":0,"byteOffset":131876,"byteLength":1524,"target":34963},{"buffer":0,"byteOffset":133400,"byteLength":1440,"target":34962,"byteStride":12},{"buffer":0,"byteOffset":134840,"byteLength":1440,"target":34962,"byteStride":12},{"buffer":0,"byteOffset":136280,"byteLength":960,"target":34962,"byteStride":8},{"buffer":0,"byteOffset":137240,"byteLength":360,"target":34963},{"buffer":0,"byteOffset":137600,"byteLength":1440,"target":34962,"byteStride":12},{"buffer":0,"byteOffset":139040,"byteLength":1440,"target":34962,"byteStride":12},{"buffer":0,"byteOffset":140480,"byteLength":960,"target":34962,"byteStride":8},{"buffer":0,"byteOffset":141440,"byteLength":360,"target":34963},{"buffer":0,"byteOffset":141800,"byteLength":6384,"target":34962,"byteStride":12},{"buffer":0,"byteOffset":148184,"byteLength":6384,"target":34962,"byteStride":12},{"buffer":0,"byteOffset":154568,"byteLength":4256,"target":34962,"byteStride":8},{"buffer":0,"byteOffset":158824,"byteLength":1524,"target":34963},{"buffer":0,"byteOffset":160348,"byteLength":4},{"buffer":0,"byteOffset":160352,"byteLength":16},{"buffer":0,"byteOffset":160368,"byteLength":4},{"buffer":0,"byteOffset":160372,"byteLength":16},{"buffer":0,"byteOffset":160388,"byteLength":4},{"buffer":0,"byteOffset":160392,"byteLength":16}],"buffers":[{"byteLength":160408,"uri":"data:application/octet-stream;base64,"}],"accessors":[{"bufferView":0,"componentType":5126,"count":440,"max":[0.30771875381469727,0.758014976978302,0.53125],"min":[-0.30771875381469727,-0.3113393783569336,-0.453125],"type":"VEC3"},{"bufferView":1,"componentType":5126,"count":440,"max":[1,0.9803290963172913,1],"min":[-1,-1,-0.9973652958869934],"type":"VEC3"},{"bufferView":2,"componentType":5126,"count":440,"max":[0.975418746471405,0.9272031188011169],"min":[0.005186874885112047,0],"type":"VEC2"},{"bufferView":3,"componentType":5123,"count":660,"max":[439],"min":[0],"type":"SCALAR"},{"bufferView":4,"componentType":5126,"count":264,"max":[0.140625,0.5625,0.125],"min":[-0.140625,-0.0625,-0.125],"type":"VEC3"},{"bufferView":5,"componentType":5126,"count":264,"max":[0.9995120763778687,1,1],"min":[-0.9995120763778687,-1,-1],"type":"VEC3"},{"bufferView":6,"componentType":5126,"count":264,"max":[0.540069043636322,0.477569043636322],"min":[0.3125,0.25],"type":"VEC2"},{"bufferView":7,"componentType":5123,"count":360,"max":[263],"min":[0],"type":"SCALAR"},{"bufferView":8,"componentType":5126,"count":1128,"max":[0.16948062181472778,1.0585544109344482,0.04828000068664551],"min":[-0.3023943603038788,-1.1622968912124634,-0.04546999931335449],"type":"VEC3"},{"bufferView":9,"componentType":5126,"count":1128,"max":[1,0.9733258485794067,1],"min":[-1,-0.9901140928268433,-1],"type":"VEC3"},{"bufferView":10,"componentType":5126,"count":1128,"max":[0.8208749890327454,0.790069043636322],"min":[0.3125,0.53125],"type":"VEC2"},{"bufferView":11,"componentType":5123,"count":1656,"max":[1127],"min":[0],"type":"SCALAR"},{"bufferView":12,"componentType":5126,"count":360,"max":[0.109375,0.375,0.109375],"min":[-0.109375,-0.15625,-0.109375],"type":"VEC3"},{"bufferView":13,"componentType":5126,"count":360,"max":[1,1,1],"min":[-1,-1,-1],"type":"VEC3"},{"bufferView":14,"componentType":5126,"count":360,"max":[0.508819043636322,0.19631904363632202],"min":[0.03125,0.03125],"type":"VEC2"},{"bufferView":15,"componentType":5123,"count":504,"max":[359],"min":[0],"type":"SCALAR"},{"bufferView":16,"componentType":5126,"count":736,"max":[0.5,0.875,0.24917063117027283],"min":[-0.5,-0.75,-0.30861812829971313],"type":"VEC3"},{"bufferView":17,"componentType":5126,"count":736,"max":[1,1,1],"min":[-1,-1,-1],"type":"VEC3"},{"bufferView":18,"componentType":5126,"count":736,"max":[0.9140625,0.40625],"min":[0.375,0.1015625],"type":"VEC2"},{"bufferView":19,"componentType":5123,"count":1104,"max":[735],"min":[0],"type":"SCALAR"},{"bufferView":20,"componentType":5126,"count":120,"max":[0.3125,0.46875,0.265625],"min":[-0.3125,-1.1875,-0.3125],"type":"VEC3"},{"bufferView":21,"componentType":5126,"count":120,"max":[1,1,1],"min":[-1,-0.7808688282966614,-1],"type":"VEC3"},{"bufferView":22,"componentType":5126,"count":120,"max":[0.2578125,0.484375],"min":[0.03125,0.25],"type":"VEC2"},{"bufferView":23,"componentType":5123,"count":174,"max":[119],"min":[0],"type":"SCALAR"},{"bufferView":24,"componentType":5126,"count":120,"max":[0.140625,0.5625,0.15625],"min":[-0.140625,-0.0625,-0.15625],"type":"VEC3"},{"bufferView":25,"componentType":5126,"count":120,"max":[0.999687671661377,1,0.999687671661377],"min":[-0.999687671661377,-1,-0.999687671661377],"type":"VEC3"},{"bufferView":26,"componentType":5126,"count":120,"max":[0.25,0.71875],"min":[0.03125,0.53125],"type":"VEC2"},{"bufferView":27,"componentType":5123,"count":180,"max":[119],"min":[0],"type":"SCALAR"},{"bufferView":28,"componentType":5126,"count":120,"max":[0.140625,0.5625,0.15625],"min":[-0.140625,-0.0625,-0.15625],"type":"VEC3"},{"bufferView":29,"componentType":5126,"count":120,"max":[0.997199296951294,1,0.997199296951294],"min":[-0.997199296951294,-1,-0.997199296951294],"type":"VEC3"},{"bufferView":30,"componentType":5126,"count":120,"max":[0.25,0.8125],"min":[0.03125,0.5625],"type":"VEC2"},{"bufferView":31,"componentType":5123,"count":180,"max":[119],"min":[0],"type":"SCALAR"},{"bufferView":32,"componentType":5126,"count":532,"max":[0.125,0.375,0.140625],"min":[-0.125,0,-0.3233487606048584],"type":"VEC3"},{"bufferView":33,"componentType":5126,"count":532,"max":[1,1,1],"min":[-1,-1,-1],"type":"VEC3"},{"bufferView":34,"componentType":5126,"count":532,"max":[0.915069043636322,0.477569043636322],"min":[0.6875,0.15625],"type":"VEC2"},{"bufferView":35,"componentType":5123,"count":762,"max":[531],"min":[0],"type":"SCALAR"},{"bufferView":36,"componentType":5126,"count":120,"max":[0.140625,0.5625,0.15625],"min":[-0.140625,-0.0625,-0.15625],"type":"VEC3"},{"bufferView":37,"componentType":5126,"count":120,"max":[0.999687671661377,1,0.999687671661377],"min":[-0.999687671661377,-1,-0.999687671661377],"type":"VEC3"},{"bufferView":38,"componentType":5126,"count":120,"max":[0.25,0.71875],"min":[0.03125,0.53125],"type":"VEC2"},{"bufferView":39,"componentType":5123,"count":180,"max":[119],"min":[0],"type":"SCALAR"},{"bufferView":40,"componentType":5126,"count":120,"max":[0.140625,0.5625,0.15625],"min":[-0.140625,-0.0625,-0.15625],"type":"VEC3"},{"bufferView":41,"componentType":5126,"count":120,"max":[0.997199296951294,1,0.997199296951294],"min":[-0.997199296951294,-1,-0.997199296951294],"type":"VEC3"},{"bufferView":42,"componentType":5126,"count":120,"max":[0.25,0.8125],"min":[0.03125,0.5625],"type":"VEC2"},{"bufferView":43,"componentType":5123,"count":180,"max":[119],"min":[0],"type":"SCALAR"},{"bufferView":44,"componentType":5126,"count":532,"max":[0.125,0.375,0.140625],"min":[-0.125,0,-0.3233487606048584],"type":"VEC3"},{"bufferView":45,"componentType":5126,"count":532,"max":[1,1,1],"min":[-1,-1,-1],"type":"VEC3"},{"bufferView":46,"componentType":5126,"count":532,"max":[0.915069043636322,0.477569043636322],"min":[0.6875,0.15625],"type":"VEC2"},{"bufferView":47,"componentType":5123,"count":762,"max":[531],"min":[0],"type":"SCALAR"},{"bufferView":48,"componentType":5126,"count":1,"max":[0],"min":[0],"type":"SCALAR"},{"bufferView":49,"componentType":5126,"count":1,"max":[-0.13052618503570557,0,0,0.9914448857307434],"min":[-0.13052618503570557,0,0,0.9914448857307434],"type":"VEC4"},{"bufferView":50,"componentType":5126,"count":1,"max":[0],"min":[0],"type":"SCALAR"},{"bufferView":51,"componentType":5126,"count":1,"max":[0,0,0.5187732577323914,0.8549118638038635],"min":[0,0,0.5187732577323914,0.8549118638038635],"type":"VEC4"},{"bufferView":52,"componentType":5126,"count":1,"max":[0],"min":[0],"type":"SCALAR"},{"bufferView":53,"componentType":5126,"count":1,"max":[0.776714563369751,0.22114434838294983,-0.38303324580192566,0.4484363794326782],"min":[0.776714563369751,0.22114434838294983,-0.38303324580192566,0.4484363794326782],"type":"VEC4"}],"materials":[{"pbrMetallicRoughness":{"metallicFactor":0,"roughnessFactor":1,"baseColorTexture":{"index":0}},"alphaMode":"MASK","alphaCutoff":0.05,"doubleSided":true}],"textures":[{"sampler":0,"source":0,"name":"hound_wizard_0.png"}],"samplers":[{"magFilter":9728,"minFilter":9728,"wrapS":33071,"wrapT":33071}],"images":[{"mimeType":"image/png","uri":"data:image/png;base64,"}],"meshes":[{"primitives":[{"mode":4,"attributes":{"POSITION":0,"NORMAL":1,"TEXCOORD_0":2},"indices":3,"material":0}]},{"primitives":[{"mode":4,"attributes":{"POSITION":4,"NORMAL":5,"TEXCOORD_0":6},"indices":7,"material":0}]},{"primitives":[{"mode":4,"attributes":{"POSITION":8,"NORMAL":9,"TEXCOORD_0":10},"indices":11,"material":0}]},{"primitives":[{"mode":4,"attributes":{"POSITION":12,"NORMAL":13,"TEXCOORD_0":14},"indices":15,"material":0}]},{"primitives":[{"mode":4,"attributes":{"POSITION":16,"NORMAL":17,"TEXCOORD_0":18},"indices":19,"material":0}]},{"primitives":[{"mode":4,"attributes":{"POSITION":20,"NORMAL":21,"TEXCOORD_0":22},"indices":23,"material":0}]},{"primitives":[{"mode":4,"attributes":{"POSITION":24,"NORMAL":25,"TEXCOORD_0":26},"indices":27,"material":0}]},{"primitives":[{"mode":4,"attributes":{"POSITION":28,"NORMAL":29,"TEXCOORD_0":30},"indices":31,"material":0}]},{"primitives":[{"mode":4,"attributes":{"POSITION":32,"NORMAL":33,"TEXCOORD_0":34},"indices":35,"material":0}]},{"primitives":[{"mode":4,"attributes":{"POSITION":36,"NORMAL":37,"TEXCOORD_0":38},"indices":39,"material":0}]},{"primitives":[{"mode":4,"attributes":{"POSITION":40,"NORMAL":41,"TEXCOORD_0":42},"indices":43,"material":0}]},{"primitives":[{"mode":4,"attributes":{"POSITION":44,"NORMAL":45,"TEXCOORD_0":46},"indices":47,"material":0}]}],"animations":[{"name":"idle","samplers":[{"input":48,"output":49,"interpolation":"LINEAR"},{"input":50,"output":51,"interpolation":"LINEAR"},{"input":52,"output":53,"interpolation":"LINEAR"}],"channels":[{"sampler":0,"target":{"node":1,"path":"rotation"}},{"sampler":1,"target":{"node":8,"path":"rotation"}},{"sampler":2,"target":{"node":7,"path":"rotation"}}]}]}