{"asset":{"version":"2.0","generator":"Blockbench 4.12.4 glTF exporter"},"scenes":[{"nodes":[2],"name":"blockbench_export"}],"scene":0,"nodes":[{"name":"cuboid","mesh":0},{"rotation":[0,-0.7071067811865475,0,0.7071067811865476],"name":"fireball","children":[0]},{"children":[1]}],"bufferViews":[{"buffer":0,"byteOffset":0,"byteLength":2376,"target":34962,"byteStride":12},{"buffer":0,"byteOffset":2376,"byteLength":2376,"target":34962,"byteStride":12},{"buffer":0,"byteOffset":4752,"byteLength":1584,"target":34962,"byteStride":8},{"buffer":0,"byteOffset":6336,"byteLength":576,"target":34963}],"buffers":[{"byteLength":6912,"uri":"data:application/octet-stream;base64,"}],"accessors":[{"bufferView":0,"componentType":5126,"count":198,"max":[1.1875,0.5,0.25],"min":[-0.5625,0,-0.25],"type":"VEC3"},{"bufferView":1,"componentType":5126,"count":198,"max":[1,0.9710988998413086,0.9710988998413086],"min":[-1,-0.9710988998413086,-0.9710988998413086],"type":"VEC3"},{"bufferView":2,"componentType":5126,"count":198,"max":[0.546875,0.546875],"min":[0,0],"type":"VEC2"},{"bufferView":3,"componentType":5123,"count":288,"max":[197],"min":[0],"type":"SCALAR"}],"materials":[{"pbrMetallicRoughness":{"metallicFactor":0,"roughnessFactor":1,"baseColorTexture":{"index":0}},"alphaMode":"MASK","alphaCutoff":0.05,"doubleSided":true}],"textures":[{"sampler":0,"source":0,"name":"main"}],"samplers":[{"magFilter":9728,"minFilter":9728,"wrapS":33071,"wrapT":33071}],"images":[{"mimeType":"image/png","uri":"data:image/png;base64,"}],"meshes":[{"primitives":[{"mode":4,"attributes":{"POSITION":0,"NORMAL":1,"TEXCOORD_0":2},"indices":3,"material":0}]}]}